ply
format ascii 1.0
element vertex 416
property float x
property float y
property float z
property uchar red
property uchar green
property uchar blue
element face 312
property list uchar int vertex_indices
end_header
0 0 0 255 255 255
7000 0 0 255 255 255
7000 7000 0 255 255 255
0 7000 0 255 255 255
0 0 2000 255 255 255
7000 0 2000 255 255 255
7000 7000 2000 255 255 255
0 7000 2000 255 255 255
0 0 0 255 255 255
6000 0 0 255 255 255
6000 6000 0 255 255 255
0 6000 0 255 255 255
0 0 1000 255 255 255
6000 0 1000 255 255 255
6000 6000 1000 255 255 255
0 6000 1000 255 255 255
500 500 50 255 255 255
5500 500 50 255 255 255
5500 5500 50 255 255 255
500 5500 50 255 255 255
500 500 350 255 255 255
5500 500 350 255 255 255
5500 5500 350 255 255 255
500 5500 350 255 255 255
500 500 650 255 255 255
5500 500 650 255 255 255
5500 5500 650 255 255 255
500 5500 650 255 255 255
500 500 950 255 255 255
5500 500 950 255 255 255
5500 5500 950 255 255 255
500 5500 950 255 255 255
500 500 950 255 255 255
5500 500 950 255 255 255
5500 5500 950 255 255 255
500 5500 950 255 255 255
500 500 1250 255 255 255
5500 500 1250 255 255 255
5500 5500 1250 255 255 255
500 5500 1250 255 255 255
500 500 1250 255 255 255
5500 500 1250 255 255 255
5500 5500 1250 255 255 255
500 5500 1250 255 255 255
500 500 1550 255 255 255
5500 500 1550 255 255 255
5500 5500 1550 255 255 255
500 5500 1550 255 255 255
500 500 1550 255 255 255
5500 500 1550 255 255 255
5500 5500 1550 255 255 255
500 5500 1550 255 255 255
500 500 1850 255 255 255
5500 500 1850 255 255 255
5500 5500 1850 255 255 255
500 5500 1850 255 255 255
500 500 1850 255 255 255
5500 500 1850 255 255 255
5500 5500 1850 255 255 255
500 5500 1850 255 255 255
500 500 2150 255 255 255
5500 500 2150 255 255 255
5500 5500 2150 255 255 255
500 5500 2150 255 255 255
500 500 2150 255 255 255
5500 500 2150 255 255 255
5500 5500 2150 255 255 255
500 5500 2150 255 255 255
500 500 2450 255 255 255
5500 500 2450 255 255 255
5500 5500 2450 255 255 255
500 5500 2450 255 255 255
500 500 2450 255 255 255
5500 500 2450 255 255 255
5500 5500 2450 255 255 255
500 5500 2450 255 255 255
500 500 2750 255 255 255
5500 500 2750 255 255 255
5500 5500 2750 255 255 255
500 5500 2750 255 255 255
500 500 2750 255 255 255
5500 500 2750 255 255 255
5500 5500 2750 255 255 255
500 5500 2750 255 255 255
500 500 3050 255 255 255
5500 500 3050 255 255 255
5500 5500 3050 255 255 255
500 5500 3050 255 255 255
500 500 3050 255 255 255
5500 500 3050 255 255 255
5500 5500 3050 255 255 255
500 5500 3050 255 255 255
500 500 3350 255 255 255
5500 500 3350 255 255 255
5500 5500 3350 255 255 255
500 5500 3350 255 255 255
500 500 3350 255 255 255
5500 500 3350 255 255 255
5500 5500 3350 255 255 255
500 5500 3350 255 255 255
500 500 3650 255 255 255
5500 500 3650 255 255 255
5500 5500 3650 255 255 255
500 5500 3650 255 255 255
500 500 3650 255 255 255
5500 500 3650 255 255 255
5500 5500 3650 255 255 255
500 5500 3650 255 255 255
500 500 3950 255 255 255
5500 500 3950 255 255 255
5500 5500 3950 255 255 255
500 5500 3950 255 255 255
500 500 3950 255 255 255
5500 500 3950 255 255 255
5500 5500 3950 255 255 255
500 5500 3950 255 255 255
500 500 4250 255 255 255
5500 500 4250 255 255 255
5500 5500 4250 255 255 255
500 5500 4250 255 255 255
500 500 4250 255 255 255
5500 500 4250 255 255 255
5500 5500 4250 255 255 255
500 5500 4250 255 255 255
500 500 4550 255 255 255
5500 500 4550 255 255 255
5500 5500 4550 255 255 255
500 5500 4550 255 255 255
500 500 4550 255 255 255
5500 500 4550 255 255 255
5500 5500 4550 255 255 255
500 5500 4550 255 255 255
500 500 4850 255 255 255
5500 500 4850 255 255 255
5500 5500 4850 255 255 255
500 5500 4850 255 255 255
500 500 4850 255 255 255
5500 500 4850 255 255 255
5500 5500 4850 255 255 255
500 5500 4850 255 255 255
500 500 5150 255 255 255
5500 500 5150 255 255 255
5500 5500 5150 255 255 255
500 5500 5150 255 255 255
500 500 5150 255 255 255
5500 500 5150 255 255 255
5500 5500 5150 255 255 255
500 5500 5150 255 255 255
500 500 5450 255 255 255
5500 500 5450 255 255 255
5500 5500 5450 255 255 255
500 5500 5450 255 255 255
500 500 5450 255 255 255
5500 500 5450 255 255 255
5500 5500 5450 255 255 255
500 5500 5450 255 255 255
500 500 5750 255 255 255
5500 500 5750 255 255 255
5500 5500 5750 255 255 255
500 5500 5750 255 255 255
500 500 5750 255 255 255
5500 500 5750 255 255 255
5500 5500 5750 255 255 255
500 5500 5750 255 255 255
500 500 6050 255 255 255
5500 500 6050 255 255 255
5500 5500 6050 255 255 255
500 5500 6050 255 255 255
500 500 6050 255 255 255
5500 500 6050 255 255 255
5500 5500 6050 255 255 255
500 5500 6050 255 255 255
500 500 6350 255 255 255
5500 500 6350 255 255 255
5500 5500 6350 255 255 255
500 5500 6350 255 255 255
500 500 6350 255 255 255
5500 500 6350 255 255 255
5500 5500 6350 255 255 255
500 5500 6350 255 255 255
500 500 6650 255 255 255
5500 500 6650 255 255 255
5500 5500 6650 255 255 255
500 5500 6650 255 255 255
500 500 6650 255 255 255
5500 500 6650 255 255 255
5500 5500 6650 255 255 255
500 5500 6650 255 255 255
500 500 6950 255 255 255
5500 500 6950 255 255 255
5500 5500 6950 255 255 255
500 5500 6950 255 255 255
500 500 6950 255 255 255
5500 500 6950 255 255 255
5500 5500 6950 255 255 255
500 5500 6950 255 255 255
500 500 7250 255 255 255
5500 500 7250 255 255 255
5500 5500 7250 255 255 255
500 5500 7250 255 255 255
500 500 7250 255 255 255
5500 500 7250 255 255 255
5500 5500 7250 255 255 255
500 5500 7250 255 255 255
500 500 7550 255 255 255
5500 500 7550 255 255 255
5500 5500 7550 255 255 255
500 5500 7550 255 255 255
500 500 7550 255 255 255
5500 500 7550 255 255 255
5500 5500 7550 255 255 255
500 5500 7550 255 255 255
500 500 7850 255 255 255
5500 500 7850 255 255 255
5500 5500 7850 255 255 255
500 5500 7850 255 255 255
500 500 7850 255 255 255
5500 500 7850 255 255 255
5500 5500 7850 255 255 255
500 5500 7850 255 255 255
500 500 8150 255 255 255
5500 500 8150 255 255 255
5500 5500 8150 255 255 255
500 5500 8150 255 255 255
500 500 8150 255 255 255
5500 500 8150 255 255 255
5500 5500 8150 255 255 255
500 5500 8150 255 255 255
500 500 8450 255 255 255
5500 500 8450 255 255 255
5500 5500 8450 255 255 255
500 5500 8450 255 255 255
500 500 8450 255 255 255
5500 500 8450 255 255 255
5500 5500 8450 255 255 255
500 5500 8450 255 255 255
500 500 8750 255 255 255
5500 500 8750 255 255 255
5500 5500 8750 255 255 255
500 5500 8750 255 255 255
500 500 8750 255 255 255
5500 500 8750 255 255 255
5500 5500 8750 255 255 255
500 5500 8750 255 255 255
500 500 9050 255 255 255
5500 500 9050 255 255 255
5500 5500 9050 255 255 255
500 5500 9050 255 255 255
500 500 9050 255 255 255
5500 500 9050 255 255 255
5500 5500 9050 255 255 255
500 5500 9050 255 255 255
500 500 9350 255 255 255
5500 500 9350 255 255 255
5500 5500 9350 255 255 255
500 5500 9350 255 255 255
500 500 9350 255 255 255
5500 500 9350 255 255 255
5500 5500 9350 255 255 255
500 5500 9350 255 255 255
500 500 9650 255 255 255
5500 500 9650 255 255 255
5500 5500 9650 255 255 255
500 5500 9650 255 255 255
500 500 9650 255 255 255
5500 500 9650 255 255 255
5500 5500 9650 255 255 255
500 5500 9650 255 255 255
500 500 9950 255 255 255
5500 500 9950 255 255 255
5500 5500 9950 255 255 255
500 5500 9950 255 255 255
500 500 9950 255 255 255
5500 500 9950 255 255 255
5500 5500 9950 255 255 255
500 5500 9950 255 255 255
500 500 10250 255 255 255
5500 500 10250 255 255 255
5500 5500 10250 255 255 255
500 5500 10250 255 255 255
500 500 10250 255 255 255
5500 500 10250 255 255 255
5500 5500 10250 255 255 255
500 5500 10250 255 255 255
500 500 10550 255 255 255
5500 500 10550 255 255 255
5500 5500 10550 255 255 255
500 5500 10550 255 255 255
500 500 10550 255 255 255
5500 500 10550 255 255 255
5500 5500 10550 255 255 255
500 5500 10550 255 255 255
500 500 10850 255 255 255
5500 500 10850 255 255 255
5500 5500 10850 255 255 255
500 5500 10850 255 255 255
500 500 10850 255 255 255
5500 500 10850 255 255 255
5500 5500 10850 255 255 255
500 5500 10850 255 255 255
500 500 11150 255 255 255
5500 500 11150 255 255 255
5500 5500 11150 255 255 255
500 5500 11150 255 255 255
500 500 11150 255 255 255
5500 500 11150 255 255 255
5500 5500 11150 255 255 255
500 5500 11150 255 255 255
500 500 11450 255 255 255
5500 500 11450 255 255 255
5500 5500 11450 255 255 255
500 5500 11450 255 255 255
500 500 11450 255 255 255
5500 500 11450 255 255 255
5500 5500 11450 255 255 255
500 5500 11450 255 255 255
500 500 11750 255 255 255
5500 500 11750 255 255 255
5500 5500 11750 255 255 255
500 5500 11750 255 255 255
500 500 11750 255 255 255
5500 500 11750 255 255 255
5500 5500 11750 255 255 255
500 5500 11750 255 255 255
500 500 12050 255 255 255
5500 500 12050 255 255 255
5500 5500 12050 255 255 255
500 5500 12050 255 255 255
500 500 12050 255 255 255
5500 500 12050 255 255 255
5500 5500 12050 255 255 255
500 5500 12050 255 255 255
500 500 12350 255 255 255
5500 500 12350 255 255 255
5500 5500 12350 255 255 255
500 5500 12350 255 255 255
500 500 12350 255 255 255
5500 500 12350 255 255 255
5500 5500 12350 255 255 255
500 5500 12350 255 255 255
500 500 12650 255 255 255
5500 500 12650 255 255 255
5500 5500 12650 255 255 255
500 5500 12650 255 255 255
500 500 12650 255 255 255
5500 500 12650 255 255 255
5500 5500 12650 255 255 255
500 5500 12650 255 255 255
500 500 12950 255 255 255
5500 500 12950 255 255 255
5500 5500 12950 255 255 255
500 5500 12950 255 255 255
500 500 12950 255 255 255
5500 500 12950 255 255 255
5500 5500 12950 255 255 255
500 5500 12950 255 255 255
500 500 13250 255 255 255
5500 500 13250 255 255 255
5500 5500 13250 255 255 255
500 5500 13250 255 255 255
500 500 13250 255 255 255
5500 500 13250 255 255 255
5500 5500 13250 255 255 255
500 5500 13250 255 255 255
500 500 13550 255 255 255
5500 500 13550 255 255 255
5500 5500 13550 255 255 255
500 5500 13550 255 255 255
500 500 13550 255 255 255
5500 500 13550 255 255 255
5500 5500 13550 255 255 255
500 5500 13550 255 255 255
500 500 13850 255 255 255
5500 500 13850 255 255 255
5500 5500 13850 255 255 255
500 5500 13850 255 255 255
500 500 13850 255 255 255
5500 500 13850 255 255 255
5500 5500 13850 255 255 255
500 5500 13850 255 255 255
500 500 14150 255 255 255
5500 500 14150 255 255 255
5500 5500 14150 255 255 255
500 5500 14150 255 255 255
500 500 14150 255 255 255
5500 500 14150 255 255 255
5500 5500 14150 255 255 255
500 5500 14150 255 255 255
500 500 14450 255 255 255
5500 500 14450 255 255 255
5500 5500 14450 255 255 255
500 5500 14450 255 255 255
500 500 14450 255 255 255
5500 500 14450 255 255 255
5500 5500 14450 255 255 255
500 5500 14450 255 255 255
500 500 14750 255 255 255
5500 500 14750 255 255 255
5500 5500 14750 255 255 255
500 5500 14750 255 255 255
500 500 14750 255 255 255
5500 500 14750 255 255 255
5500 5500 14750 255 255 255
500 5500 14750 255 255 255
500 500 15050 255 255 255
5500 500 15050 255 255 255
5500 5500 15050 255 255 255
500 5500 15050 255 255 255
500 500 15050 255 255 255
5500 500 15050 255 255 255
5500 5500 15050 255 255 255
500 5500 15050 255 255 255
500 500 15350 255 255 255
5500 500 15350 255 255 255
5500 5500 15350 255 255 255
500 5500 15350 255 255 255
4 0 1 2 3
4 4 5 6 7
5 0 1 5 4 0
5 1 2 6 5 1
5 2 3 7 6 2
5 3 0 4 7 3
4 8 9 10 11
4 12 13 14 15
5 8 9 13 12 8
5 9 10 14 13 9
5 10 11 15 14 10
5 11 8 12 15 11
4 16 17 18 19
4 20 21 22 23
5 16 17 21 20 16
5 17 18 22 21 17
5 18 19 23 22 18
5 19 16 20 23 19
4 24 25 26 27
4 28 29 30 31
5 24 25 29 28 24
5 25 26 30 29 25
5 26 27 31 30 26
5 27 24 28 31 27
4 32 33 34 35
4 36 37 38 39
5 32 33 37 36 32
5 33 34 38 37 33
5 34 35 39 38 34
5 35 32 36 39 35
4 40 41 42 43
4 44 45 46 47
5 40 41 45 44 40
5 41 42 46 45 41
5 42 43 47 46 42
5 43 40 44 47 43
4 48 49 50 51
4 52 53 54 55
5 48 49 53 52 48
5 49 50 54 53 49
5 50 51 55 54 50
5 51 48 52 55 51
4 56 57 58 59
4 60 61 62 63
5 56 57 61 60 56
5 57 58 62 61 57
5 58 59 63 62 58
5 59 56 60 63 59
4 64 65 66 67
4 68 69 70 71
5 64 65 69 68 64
5 65 66 70 69 65
5 66 67 71 70 66
5 67 64 68 71 67
4 72 73 74 75
4 76 77 78 79
5 72 73 77 76 72
5 73 74 78 77 73
5 74 75 79 78 74
5 75 72 76 79 75
4 80 81 82 83
4 84 85 86 87
5 80 81 85 84 80
5 81 82 86 85 81
5 82 83 87 86 82
5 83 80 84 87 83
4 88 89 90 91
4 92 93 94 95
5 88 89 93 92 88
5 89 90 94 93 89
5 90 91 95 94 90
5 91 88 92 95 91
4 96 97 98 99
4 100 101 102 103
5 96 97 101 100 96
5 97 98 102 101 97
5 98 99 103 102 98
5 99 96 100 103 99
4 104 105 106 107
4 108 109 110 111
5 104 105 109 108 104
5 105 106 110 109 105
5 106 107 111 110 106
5 107 104 108 111 107
4 112 113 114 115
4 116 117 118 119
5 112 113 117 116 112
5 113 114 118 117 113
5 114 115 119 118 114
5 115 112 116 119 115
4 120 121 122 123
4 124 125 126 127
5 120 121 125 124 120
5 121 122 126 125 121
5 122 123 127 126 122
5 123 120 124 127 123
4 128 129 130 131
4 132 133 134 135
5 128 129 133 132 128
5 129 130 134 133 129
5 130 131 135 134 130
5 131 128 132 135 131
4 136 137 138 139
4 140 141 142 143
5 136 137 141 140 136
5 137 138 142 141 137
5 138 139 143 142 138
5 139 136 140 143 139
4 144 145 146 147
4 148 149 150 151
5 144 145 149 148 144
5 145 146 150 149 145
5 146 147 151 150 146
5 147 144 148 151 147
4 152 153 154 155
4 156 157 158 159
5 152 153 157 156 152
5 153 154 158 157 153
5 154 155 159 158 154
5 155 152 156 159 155
4 160 161 162 163
4 164 165 166 167
5 160 161 165 164 160
5 161 162 166 165 161
5 162 163 167 166 162
5 163 160 164 167 163
4 168 169 170 171
4 172 173 174 175
5 168 169 173 172 168
5 169 170 174 173 169
5 170 171 175 174 170
5 171 168 172 175 171
4 176 177 178 179
4 180 181 182 183
5 176 177 181 180 176
5 177 178 182 181 177
5 178 179 183 182 178
5 179 176 180 183 179
4 184 185 186 187
4 188 189 190 191
5 184 185 189 188 184
5 185 186 190 189 185
5 186 187 191 190 186
5 187 184 188 191 187
4 192 193 194 195
4 196 197 198 199
5 192 193 197 196 192
5 193 194 198 197 193
5 194 195 199 198 194
5 195 192 196 199 195
4 200 201 202 203
4 204 205 206 207
5 200 201 205 204 200
5 201 202 206 205 201
5 202 203 207 206 202
5 203 200 204 207 203
4 208 209 210 211
4 212 213 214 215
5 208 209 213 212 208
5 209 210 214 213 209
5 210 211 215 214 210
5 211 208 212 215 211
4 216 217 218 219
4 220 221 222 223
5 216 217 221 220 216
5 217 218 222 221 217
5 218 219 223 222 218
5 219 216 220 223 219
4 224 225 226 227
4 228 229 230 231
5 224 225 229 228 224
5 225 226 230 229 225
5 226 227 231 230 226
5 227 224 228 231 227
4 232 233 234 235
4 236 237 238 239
5 232 233 237 236 232
5 233 234 238 237 233
5 234 235 239 238 234
5 235 232 236 239 235
4 240 241 242 243
4 244 245 246 247
5 240 241 245 244 240
5 241 242 246 245 241
5 242 243 247 246 242
5 243 240 244 247 243
4 248 249 250 251
4 252 253 254 255
5 248 249 253 252 248
5 249 250 254 253 249
5 250 251 255 254 250
5 251 248 252 255 251
4 256 257 258 259
4 260 261 262 263
5 256 257 261 260 256
5 257 258 262 261 257
5 258 259 263 262 258
5 259 256 260 263 259
4 264 265 266 267
4 268 269 270 271
5 264 265 269 268 264
5 265 266 270 269 265
5 266 267 271 270 266
5 267 264 268 271 267
4 272 273 274 275
4 276 277 278 279
5 272 273 277 276 272
5 273 274 278 277 273
5 274 275 279 278 274
5 275 272 276 279 275
4 280 281 282 283
4 284 285 286 287
5 280 281 285 284 280
5 281 282 286 285 281
5 282 283 287 286 282
5 283 280 284 287 283
4 288 289 290 291
4 292 293 294 295
5 288 289 293 292 288
5 289 290 294 293 289
5 290 291 295 294 290
5 291 288 292 295 291
4 296 297 298 299
4 300 301 302 303
5 296 297 301 300 296
5 297 298 302 301 297
5 298 299 303 302 298
5 299 296 300 303 299
4 304 305 306 307
4 308 309 310 311
5 304 305 309 308 304
5 305 306 310 309 305
5 306 307 311 310 306
5 307 304 308 311 307
4 312 313 314 315
4 316 317 318 319
5 312 313 317 316 312
5 313 314 318 317 313
5 314 315 319 318 314
5 315 312 316 319 315
4 320 321 322 323
4 324 325 326 327
5 320 321 325 324 320
5 321 322 326 325 321
5 322 323 327 326 322
5 323 320 324 327 323
4 328 329 330 331
4 332 333 334 335
5 328 329 333 332 328
5 329 330 334 333 329
5 330 331 335 334 330
5 331 328 332 335 331
4 336 337 338 339
4 340 341 342 343
5 336 337 341 340 336
5 337 338 342 341 337
5 338 339 343 342 338
5 339 336 340 343 339
4 344 345 346 347
4 348 349 350 351
5 344 345 349 348 344
5 345 346 350 349 345
5 346 347 351 350 346
5 347 344 348 351 347
4 352 353 354 355
4 356 357 358 359
5 352 353 357 356 352
5 353 354 358 357 353
5 354 355 359 358 354
5 355 352 356 359 355
4 360 361 362 363
4 364 365 366 367
5 360 361 365 364 360
5 361 362 366 365 361
5 362 363 367 366 362
5 363 360 364 367 363
4 368 369 370 371
4 372 373 374 375
5 368 369 373 372 368
5 369 370 374 373 369
5 370 371 375 374 370
5 371 368 372 375 371
4 376 377 378 379
4 380 381 382 383
5 376 377 381 380 376
5 377 378 382 381 377
5 378 379 383 382 378
5 379 376 380 383 379
4 384 385 386 387
4 388 389 390 391
5 384 385 389 388 384
5 385 386 390 389 385
5 386 387 391 390 386
5 387 384 388 391 387
4 392 393 394 395
4 396 397 398 399
5 392 393 397 396 392
5 393 394 398 397 393
5 394 395 399 398 394
5 395 392 396 399 395
4 400 401 402 403
4 404 405 406 407
5 400 401 405 404 400
5 401 402 406 405 401
5 402 403 407 406 402
5 403 400 404 407 403
4 408 409 410 411
4 412 413 414 415
5 408 409 413 412 408
5 409 410 414 413 409
5 410 411 415 414 410
5 411 408 412 415 411