ply
format ascii 1.0
element vertex 48
property float x
property float y
property float z
property uchar red
property uchar green
property uchar blue
element face 34
property list uchar int vertex_indices
end_header
0 0 0 255 255 255
50 -10 0 255 255 255
100 0 0 255 255 255
110 50 0 255 255 255
100 100 0 255 255 255
50 110 0 255 255 255
0 100 0 255 255 255
-10 50 0 255 255 255
0 0 10 255 255 255
50 -10 10 255 255 255
100 0 10 255 255 255
110 50 10 255 255 255
100 100 10 255 255 255
50 110 10 255 255 255
0 100 10 255 255 255
-10 50 10 255 255 255
20 20 0 255 255 255
80 20 0 255 255 255
80 80 0 255 255 255
20 80 0 255 255 255
20 20 100 255 255 255
80 20 100 255 255 255
80 80 100 255 255 255
20 80 100 255 255 255
30 30 0 255 255 255
70 30 0 255 255 255
70 70 0 255 255 255
30 70 0 255 255 255
30 30 5 255 255 255
70 30 5 255 255 255
70 70 5 255 255 255
30 70 5 255 255 255
30 30 0 255 255 255
70 30 0 255 255 255
70 70 0 255 255 255
30 70 0 255 255 255
30 30 5 255 255 255
70 30 5 255 255 255
70 70 5 255 255 255
30 70 5 255 255 255
30 30 0 255 255 255
70 30 0 255 255 255
70 70 0 255 255 255
30 70 0 255 255 255
30 30 5 255 255 255
70 30 5 255 255 255
70 70 5 255 255 255
30 70 5 255 255 255
8 0 1 2 3 4 5 6 7
8 8 9 10 11 12 13 14 15
5 0 1 9 8 0
5 1 2 10 9 1
5 2 3 11 10 2
5 3 4 12 11 3
5 4 5 13 12 4
5 5 6 14 13 5
5 6 7 15 14 6
5 7 0 8 15 7
4 16 17 18 19
4 20 21 22 23
5 16 17 21 20 16
5 17 18 22 21 17
5 18 19 23 22 18
5 19 16 20 23 19
4 24 25 26 27
4 28 29 30 31
5 24 25 29 28 24
5 25 26 30 29 25
5 26 27 31 30 26
5 27 24 28 31 27
4 32 33 34 35
4 36 37 38 39
5 32 33 37 36 32
5 33 34 38 37 33
5 34 35 39 38 34
5 35 32 36 39 35
4 40 41 42 43
4 44 45 46 47
5 40 41 45 44 40
5 41 42 46 45 41
5 42 43 47 46 42
5 43 40 44 47 43